<?xml version="1.0" encoding="UTF-8" standalone="no"?>
<!-- translate-xy="150,150" -->

<svg
   xmlns:dc="http://purl.org/dc/elements/1.1/"
   xmlns:cc="http://creativecommons.org/ns#"
   xmlns:rdf="http://www.w3.org/1999/02/22-rdf-syntax-ns#"
   xmlns:svg="http://www.w3.org/2000/svg"
   xmlns="http://www.w3.org/2000/svg"
   xmlns:sodipodi="http://sodipodi.sourceforge.net/DTD/sodipodi-0.dtd"
   xmlns:inkscape="http://www.inkscape.org/namespaces/inkscape"
   width="300"
   height="300"
   viewBox="0 0 300 300"
   version="1.1"
   id="svg8"
   sodipodi:docname="traditional-round-no-frame-44aa44.svg"
   inkscape:version="0.92.3 (2405546, 2018-03-11)">
  <metadata
     id="metadata14">
    <rdf:RDF>
      <cc:Work
         rdf:about="">
        <dc:format>image/svg+xml</dc:format>
        <dc:type
           rdf:resource="http://purl.org/dc/dcmitype/StillImage" />
        <dc:title></dc:title>
      </cc:Work>
    </rdf:RDF>
  </metadata>
  <defs
     id="defs12" />
  <sodipodi:namedview
     pagecolor="#ffffff"
     bordercolor="#666666"
     borderopacity="1"
     objecttolerance="10"
     gridtolerance="10"
     guidetolerance="10"
     inkscape:pageopacity="0"
     inkscape:pageshadow="2"
     inkscape:window-width="1280"
     inkscape:window-height="737"
     id="namedview10"
     showgrid="false"
     inkscape:zoom="1.5733333"
     inkscape:cx="184.76554"
     inkscape:cy="177.89305"
     inkscape:window-x="-8"
     inkscape:window-y="-8"
     inkscape:window-maximized="1"
     inkscape:current-layer="svg8"
     inkscape:showpageshadow="false" />
  <circle
     id="circle822"
     cy="150"
     cx="150"
     style="fill:#000000;fill-opacity:1;stroke:none;stroke-width:3.24626827;stroke-opacity:1"
     r="145" />
  <g transform="translate(29, 150) scale(1.5, 1) "> <g
     aria-label="D"
     transform="scale(0.83331144,1.2000315)"
     style="font-style:normal;font-weight:normal;font-size:8.61784744px;line-height:1.25;font-family:sans-serif;letter-spacing:0px;word-spacing:0px;fill:#ffffff;fill-opacity:1;stroke:none;stroke-width:0.21544613"
     id="text826">
    <path
       d="M 2.9563382,2.7980953 0.92062615,2.4452385 V 0.7623832 H 4.883479 q 0.8957134,0 2.4157117,-0.10857131 0.3528568,-0.0271428 1.0585703,-0.0542857 0.7328564,-0.0271428 1.3028558,-0.0271428 4.9942802,0 7.4642772,2.4971402 2.497141,2.4971402 2.497141,7.0842784 0,3.202853 -1.24857,5.699994 -1.221428,2.49714 -3.501425,3.908567 -2.279998,1.384284 -5.3199945,1.384284 -0.7871421,0 -2.4699974,-0.108571 -1.574284,-0.108572 -2.1442834,-0.108572 H 0.81205484 V 19.300935 L 2.9563382,19.029506 Z M 6.8920483,19.110935 q 0.9228562,0.244285 2.5785687,0.244285 2.714283,-0.05429 4.261424,-2.171426 1.547141,-2.144283 1.547141,-6.405707 0,-4.0442816 -1.519998,-6.2428507 -1.519999,-2.2257119 -4.7228523,-2.2257119 -0.6785707,0 -1.3028557,0.081428 -0.5971422,0.081429 -0.8414277,0.1085713 z"
       style="font-style:normal;font-variant:normal;font-weight:bold;font-stretch:normal;font-size:27.14282799px;font-family:Merriweather;-inkscape-font-specification:'Merriweather Bold';fill:#ffffff;fill-opacity:1;stroke-width:0.21544613"
       id="path10" />
  </g>

 </g><g transform="translate(56, 150) scale(1.5, 1) "> <g
     aria-label="E"
     transform="scale(0.88381453,1.1314591)"
     style="font-style:normal;font-weight:normal;font-size:9.17554283px;line-height:1.25;font-family:sans-serif;letter-spacing:0px;word-spacing:0px;fill:#ffffff;fill-opacity:1;stroke:none;stroke-width:0.22938848"
     id="text826">
    <path
       d="M 3.2293086,2.9208016 0.9173611,2.5451101 V 0.75335084 H 16.320711 L 16.696403,5.6084405 H 14.673449 L 13.71977,2.7474055 7.4775121,2.4873114 v 7.7739236 l 4.0170089,-0.0867 0.462389,-2.3697464 h 1.849558 V 14.798432 H 11.95691 l -0.462389,-2.485344 -4.0170089,-0.0867 v 8.149615 l 6.9936409,-0.346792 1.676162,-3.699116 2.167451,0.606886 -0.751383,5.28858 H 0.94626044 V 20.491602 L 3.2293086,20.202609 Z"
       style="font-style:normal;font-variant:normal;font-weight:bold;font-stretch:normal;font-size:28.89934349px;font-family:Merriweather;-inkscape-font-specification:'Merriweather Bold';fill:#ffffff;fill-opacity:1;stroke-width:0.22938848"
       id="path10" />
  </g>

 </g><g transform="translate(83, 150) scale(1.5, 1) "> <g
     aria-label="V"
     transform="scale(0.82286031,1.2152731)"
     style="font-style:normal;font-weight:normal;font-size:8.55330849px;line-height:1.25;font-family:sans-serif;letter-spacing:0px;word-spacing:0px;fill:#ffffff;fill-opacity:1;stroke:none;stroke-width:0.21383266"
     id="text826">
    <path
       d="M 0.35017807,0.64996499 H 8.5398025 V 2.3202174 L 6.2499404,2.6704316 10.263934,14.739352 10.589454,16.534529 14.882571,2.6704316 13.361983,2.3202174 V 0.64996499 h 6.519372 V 2.3202174 L 18.157223,2.6704316 11.961126,20.854631 H 8.755319 L 1.9665513,2.6704316 0.35017807,2.3202174 Z"
       style="font-style:normal;font-variant:normal;font-weight:bold;font-stretch:normal;font-size:26.93955421px;font-family:Merriweather;-inkscape-font-specification:'Merriweather Bold';fill:#ffffff;fill-opacity:1;stroke-width:0.21383266"
       id="path10"
       inkscape:connector-curvature="0"
       sodipodi:nodetypes="ccccccccccccccccc" />
  </g>

 </g><g transform="translate(110, 150) scale(1.5, 1) "> <g
     aria-label="E"
     transform="scale(0.88381453,1.1314591)"
     style="font-style:normal;font-weight:normal;font-size:9.17554283px;line-height:1.25;font-family:sans-serif;letter-spacing:0px;word-spacing:0px;fill:#ffffff;fill-opacity:1;stroke:none;stroke-width:0.22938848"
     id="text826">
    <path
       d="M 3.2293086,2.9208016 0.9173611,2.5451101 V 0.75335084 H 16.320711 L 16.696403,5.6084405 H 14.673449 L 13.71977,2.7474055 7.4775121,2.4873114 v 7.7739236 l 4.0170089,-0.0867 0.462389,-2.3697464 h 1.849558 V 14.798432 H 11.95691 l -0.462389,-2.485344 -4.0170089,-0.0867 v 8.149615 l 6.9936409,-0.346792 1.676162,-3.699116 2.167451,0.606886 -0.751383,5.28858 H 0.94626044 V 20.491602 L 3.2293086,20.202609 Z"
       style="font-style:normal;font-variant:normal;font-weight:bold;font-stretch:normal;font-size:28.89934349px;font-family:Merriweather;-inkscape-font-specification:'Merriweather Bold';fill:#ffffff;fill-opacity:1;stroke-width:0.22938848"
       id="path10" />
  </g>

 </g><g transform="translate(137, 150) scale(1.5, 1) "> <g
     aria-label="L"
     transform="scale(0.89571752,1.1164234)"
     style="font-style:normal;font-weight:normal;font-size:9.29911613px;line-height:1.25;font-family:sans-serif;letter-spacing:0px;word-spacing:0px;fill:#ffffff;fill-opacity:1;stroke:none;stroke-width:0.23247786"
     id="text826">
    <path
       d="M 3.2684628,2.932147 1.0132442,2.5513958 V 0.7355055 H 10.385581 V 2.5513958 L 7.5738801,2.932147 v 17.485266 l 6.2677499,-0.263597 1.845179,-5.476959 2.372373,0.322174 -0.907945,7.49787 H 0.95466705 V 20.739587 L 3.2684628,20.446702 Z"
       style="font-style:normal;font-variant:normal;font-weight:bold;font-stretch:normal;font-size:29.28855324px;font-family:Merriweather;-inkscape-font-specification:'Merriweather Bold';fill:#ffffff;fill-opacity:1;stroke-width:0.23247786"
       id="path10" />
  </g>

 </g><g transform="translate(164, 150) scale(1.5, 1) "> <g
     aria-label="O"
     transform="scale(0.84766756,1.1797078)"
     style="font-style:normal;font-weight:normal;font-size:8.64939976px;line-height:1.25;font-family:sans-serif;letter-spacing:0px;word-spacing:0px;fill:#ffffff;fill-opacity:1;stroke:none;stroke-width:0.21623492"
     id="text826">
    <path
       d="m 9.7189946,21.40648 q -4.440479,0 -6.6470974,-2.778705 -2.20661845,-2.778705 -2.20661845,-7.573332 0,-3.1328538 1.14417255,-5.5029254 Q 3.180866,3.1814459 5.2785156,1.9010624 7.3761652,0.62067886 10.100385,0.62067886 q 4.494964,0 6.728825,2.66973584 2.261102,2.6424937 2.261102,7.4098793 0,3.160095 -1.198657,5.611894 -1.171414,2.424556 -3.296306,3.759424 -2.124892,1.334868 -4.8763544,1.334868 z M 9.9914167,2.2824532 q -2.2338607,0 -3.487002,2.2066185 -1.2531413,2.2066184 -1.2531413,6.5381283 0,4.277026 1.1986569,6.510887 1.2258991,2.206618 3.487002,2.206618 2.2066187,0 3.4597597,-2.315587 1.253141,-2.342829 1.253141,-6.728824 0,-4.2497837 -1.198657,-6.3201912 Q 12.252519,2.2824532 9.9914167,2.2824532 Z"
       style="font-style:normal;font-variant:normal;font-weight:bold;font-stretch:normal;font-size:27.24220276px;font-family:Merriweather;-inkscape-font-specification:'Merriweather Bold';fill:#ffffff;fill-opacity:1;stroke-width:0.21623492"
       id="path10" />
  </g>

 </g><g transform="translate(191, 150) scale(1.5, 1) "> <g
     aria-label="P"
     transform="scale(0.88291412,1.132613)"
     style="font-style:normal;font-weight:normal;font-size:9.13082314px;line-height:1.25;font-family:sans-serif;letter-spacing:0px;word-spacing:0px;fill:#ffffff;fill-opacity:1;stroke:none;stroke-width:0.22827052"
     id="text826">
    <path
       d="M 3.2758264,2.9646531 1.1189391,2.5907926 V 0.80776576 h 4.3425331 q 0.6039284,0 1.8693023,-0.057517 1.6679929,-0.11503399 3.0196425,-0.11503399 2.990883,0 4.716393,0.74772092 1.754269,0.7189624 2.473231,2.0993703 0.747721,1.3516494 0.747721,3.4510197 0,3.6235703 -2.271921,5.6366653 -2.243163,2.013095 -6.2405942,2.013095 -1.5817174,0 -2.2719213,-0.08628 v 5.665424 l 3.8536385,0.287585 v 1.72551 H 1.0039051 v -1.72551 L 3.2758264,20.162234 Z M 7.474567,12.656267 q 0.6614455,0.143792 2.2431628,0.143792 1.9268192,0 3.0771592,-1.322891 1.179098,-1.351649 1.179098,-4.4575668 0,-2.4157138 -1.064064,-3.5085367 -1.035306,-1.1215814 -3.1921932,-1.1215814 -0.8052379,0 -1.6679928,0.115034 -0.402619,0.057517 -0.57517,0.057517 z"
       style="font-style:normal;font-variant:normal;font-weight:bold;font-stretch:normal;font-size:28.75849724px;font-family:Merriweather;-inkscape-font-specification:'Merriweather Bold';fill:#ffffff;fill-opacity:1;stroke-width:0.22827052"
       id="path10" />
  </g>

 </g><g transform="translate(218, 150) scale(1.5, 1) "> <g
     aria-label="E"
     transform="scale(0.88381453,1.1314591)"
     style="font-style:normal;font-weight:normal;font-size:9.17554283px;line-height:1.25;font-family:sans-serif;letter-spacing:0px;word-spacing:0px;fill:#ffffff;fill-opacity:1;stroke:none;stroke-width:0.22938848"
     id="text826">
    <path
       d="M 3.2293086,2.9208016 0.9173611,2.5451101 V 0.75335084 H 16.320711 L 16.696403,5.6084405 H 14.673449 L 13.71977,2.7474055 7.4775121,2.4873114 v 7.7739236 l 4.0170089,-0.0867 0.462389,-2.3697464 h 1.849558 V 14.798432 H 11.95691 l -0.462389,-2.485344 -4.0170089,-0.0867 v 8.149615 l 6.9936409,-0.346792 1.676162,-3.699116 2.167451,0.606886 -0.751383,5.28858 H 0.94626044 V 20.491602 L 3.2293086,20.202609 Z"
       style="font-style:normal;font-variant:normal;font-weight:bold;font-stretch:normal;font-size:28.89934349px;font-family:Merriweather;-inkscape-font-specification:'Merriweather Bold';fill:#ffffff;fill-opacity:1;stroke-width:0.22938848"
       id="path10" />
  </g>

 </g><g transform="translate(245, 150) scale(1.5, 1) "> <g
     aria-label="R"
     transform="scale(0.84157802,1.188244)"
     style="font-style:normal;font-weight:normal;font-size:8.70333862px;line-height:1.25;font-family:sans-serif;letter-spacing:0px;word-spacing:0px;fill:#ffffff;fill-opacity:1;stroke:none;stroke-width:0.2175834"
     id="text826">
    <path
       d="M 0.84603595,19.492403 3.0115911,19.218283 V 2.8258525 L 0.95568431,2.4420832 V 0.76994574 H 4.9304374 q 0.5208297,0 1.1513078,-0.0274121 0.6304781,-0.0274121 0.9594232,-0.0548242 1.4254287,-0.10964837 2.3574397,-0.10964837 2.8234449,0 4.5229949,0.5756539 1.69955,0.5756539 2.467088,1.7543738 0.767539,1.1787199 0.767539,3.0975662 0,1.8914342 -1.014248,3.5087475 -1.014247,1.6173135 -2.933093,2.2203795 1.096483,0.466005 1.946258,1.699549 0.849775,1.233545 1.809198,3.207215 0.685302,1.343192 1.041659,1.946258 0.38377,0.575654 0.740127,0.657891 l 0.904599,0.274121 v 1.617313 h -4.660055 q -0.438594,0 -0.932012,-0.877187 Q 13.592658,19.355343 12.825119,17.436497 11.92052,15.188705 11.26263,13.927749 10.60474,12.666793 9.8646137,12.36526 H 7.0411684 v 6.853023 l 2.5219123,0.27412 v 1.644726 H 0.84603595 Z M 9.5630807,10.693122 q 1.5624893,0 2.4396763,-1.1238953 0.877187,-1.1238957 0.877187,-3.3716871 0,-2.0010826 -0.877187,-2.9605057 -0.849775,-0.9594232 -2.9605061,-0.9594232 -0.7675385,0 -1.3157803,0.082236 -0.5208297,0.054824 -0.6853022,0.054824 v 8.2236268 q 0.328945,0.05482 1.5899012,0.05482 z"
       style="font-style:normal;font-variant:normal;font-weight:bold;font-stretch:normal;font-size:27.4120903px;font-family:Merriweather;-inkscape-font-specification:'Merriweather Bold';fill:#ffffff;fill-opacity:1;stroke-width:0.2175834"
       id="path10" />
  </g>

 </g> </svg>
