<?xml version="1.0" encoding="UTF-8" standalone="no"?>
<!-- translate-xy="150,150" -->

<svg
   xmlns:dc="http://purl.org/dc/elements/1.1/"
   xmlns:cc="http://creativecommons.org/ns#"
   xmlns:rdf="http://www.w3.org/1999/02/22-rdf-syntax-ns#"
   xmlns:svg="http://www.w3.org/2000/svg"
   xmlns="http://www.w3.org/2000/svg"
   xmlns:sodipodi="http://sodipodi.sourceforge.net/DTD/sodipodi-0.dtd"
   xmlns:inkscape="http://www.inkscape.org/namespaces/inkscape"
   width="300"
   height="300"
   viewBox="0 0 300 300"
   version="1.1"
   id="svg8"
   sodipodi:docname="traditional-round-no-frame-44aa44.svg"
   inkscape:version="0.92.3 (2405546, 2018-03-11)">
  <metadata
     id="metadata14">
    <rdf:RDF>
      <cc:Work
         rdf:about="">
        <dc:format>image/svg+xml</dc:format>
        <dc:type
           rdf:resource="http://purl.org/dc/dcmitype/StillImage" />
        <dc:title></dc:title>
      </cc:Work>
    </rdf:RDF>
  </metadata>
  <defs
     id="defs12" />
  <sodipodi:namedview
     pagecolor="#ffffff"
     bordercolor="#666666"
     borderopacity="1"
     objecttolerance="10"
     gridtolerance="10"
     guidetolerance="10"
     inkscape:pageopacity="0"
     inkscape:pageshadow="2"
     inkscape:window-width="1280"
     inkscape:window-height="737"
     id="namedview10"
     showgrid="false"
     inkscape:zoom="1.5733333"
     inkscape:cx="184.76554"
     inkscape:cy="177.89305"
     inkscape:window-x="-8"
     inkscape:window-y="-8"
     inkscape:window-maximized="1"
     inkscape:current-layer="svg8"
     inkscape:showpageshadow="false" />
  <circle
     id="circle822"
     cy="150"
     cx="150"
     style="fill:#000000;fill-opacity:1;stroke:none;stroke-width:3.24626827;stroke-opacity:1"
     r="145" />
  <g transform="translate(15, 150) scale(1.5, 1) "> <g
     aria-label="M"
     transform="scale(0.70420143,1.4200482)"
     style="font-style:normal;font-weight:normal;font-size:7.30922985px;line-height:1.25;font-family:sans-serif;letter-spacing:0px;word-spacing:0px;fill:#ffffff;fill-opacity:1;stroke:none;stroke-width:0.1827307"
     id="text826">
    <path
       d="M 3.2062219,2.3397338 1.6962161,2.0404583 V 0.61314421 H 8.8788288 C 10.042076,4.8086545 11.256506,8.1640225 12.262944,12.369499 13.074356,8.1559049 13.759981,4.806381 14.910683,0.61314421 h 7.202302 V 2.0404583 l -1.976792,0.2992755 1.841695,13.7436532 1.864717,0.253233 v 1.381272 H 16.498844 V 16.33662 l 2.025865,-0.230212 C 18.050775,11.340779 17.569112,8.2478313 17.074374,3.4827247 15.909302,8.5622153 15.133537,11.943386 13.683294,17.004235 H 10.44427 C 8.8551903,11.943921 7.2999458,8.7741765 5.8630523,3.7027877 5.4810246,8.4686858 5.0563522,11.341162 4.642929,16.106408 l 0.9938454,0.230212 v 1.381272 H 0.56817759 V 16.33662 L 1.5256747,16.106408 Z"
       style="font-style:normal;font-variant:normal;font-weight:bold;font-stretch:normal;font-size:23.02119446px;font-family:Merriweather;-inkscape-font-specification:'Merriweather Bold';fill:#ffffff;fill-opacity:1;stroke-width:0.1827307"
       id="path10"
       inkscape:connector-curvature="0"
       sodipodi:nodetypes="cccccccccccccccccccccccccc" />
  </g>

 </g><g transform="translate(42, 150) scale(1.5, 1) "> <g
     aria-label="E"
     transform="scale(0.88381453,1.1314591)"
     style="font-style:normal;font-weight:normal;font-size:9.17554283px;line-height:1.25;font-family:sans-serif;letter-spacing:0px;word-spacing:0px;fill:#ffffff;fill-opacity:1;stroke:none;stroke-width:0.22938848"
     id="text826">
    <path
       d="M 3.2293086,2.9208016 0.9173611,2.5451101 V 0.75335084 H 16.320711 L 16.696403,5.6084405 H 14.673449 L 13.71977,2.7474055 7.4775121,2.4873114 v 7.7739236 l 4.0170089,-0.0867 0.462389,-2.3697464 h 1.849558 V 14.798432 H 11.95691 l -0.462389,-2.485344 -4.0170089,-0.0867 v 8.149615 l 6.9936409,-0.346792 1.676162,-3.699116 2.167451,0.606886 -0.751383,5.28858 H 0.94626044 V 20.491602 L 3.2293086,20.202609 Z"
       style="font-style:normal;font-variant:normal;font-weight:bold;font-stretch:normal;font-size:28.89934349px;font-family:Merriweather;-inkscape-font-specification:'Merriweather Bold';fill:#ffffff;fill-opacity:1;stroke-width:0.22938848"
       id="path10" />
  </g>

 </g><g transform="translate(69, 150) scale(1.5, 1) "> <g
     aria-label="D"
     transform="scale(0.83331144,1.2000315)"
     style="font-style:normal;font-weight:normal;font-size:8.61784744px;line-height:1.25;font-family:sans-serif;letter-spacing:0px;word-spacing:0px;fill:#ffffff;fill-opacity:1;stroke:none;stroke-width:0.21544613"
     id="text826">
    <path
       d="M 2.9563382,2.7980953 0.92062615,2.4452385 V 0.7623832 H 4.883479 q 0.8957134,0 2.4157117,-0.10857131 0.3528568,-0.0271428 1.0585703,-0.0542857 0.7328564,-0.0271428 1.3028558,-0.0271428 4.9942802,0 7.4642772,2.4971402 2.497141,2.4971402 2.497141,7.0842784 0,3.202853 -1.24857,5.699994 -1.221428,2.49714 -3.501425,3.908567 -2.279998,1.384284 -5.3199945,1.384284 -0.7871421,0 -2.4699974,-0.108571 -1.574284,-0.108572 -2.1442834,-0.108572 H 0.81205484 V 19.300935 L 2.9563382,19.029506 Z M 6.8920483,19.110935 q 0.9228562,0.244285 2.5785687,0.244285 2.714283,-0.05429 4.261424,-2.171426 1.547141,-2.144283 1.547141,-6.405707 0,-4.0442816 -1.519998,-6.2428507 -1.519999,-2.2257119 -4.7228523,-2.2257119 -0.6785707,0 -1.3028557,0.081428 -0.5971422,0.081429 -0.8414277,0.1085713 z"
       style="font-style:normal;font-variant:normal;font-weight:bold;font-stretch:normal;font-size:27.14282799px;font-family:Merriweather;-inkscape-font-specification:'Merriweather Bold';fill:#ffffff;fill-opacity:1;stroke-width:0.21544613"
       id="path10" />
  </g>

 </g><g transform="translate(123, 150) scale(1.5, 1) "> <g
     aria-label="S"
     transform="scale(0.96302891,1.0383904)"
     style="font-style:normal;font-weight:normal;font-size:9.85916138px;line-height:1.25;font-family:sans-serif;letter-spacing:0px;word-spacing:0px;fill:#ffffff;fill-opacity:1;stroke:none;stroke-width:0.24647899"
     id="text826">
    <path
       d="m 8.1153055,24.412168 q -1.6768339,0 -3.0120905,-0.279472 Q 3.7679584,23.853224 2.1221771,23.387436 1.0353403,23.076912 0.66271056,23.045859 L 0.94218287,17.301151 H 3.4574337 l 0.6831545,4.005769 q 0.4036822,0.434735 1.428414,0.776312 1.0557843,0.341578 2.3910409,0.341578 2.0805159,0 3.1052479,-0.900522 1.055784,-0.931575 1.055784,-2.577356 0,-1.086837 -0.621049,-1.863149 Q 10.878976,16.276419 9.7921393,15.655369 8.7053026,15.003267 6.8111014,14.16485 4.2337456,12.984856 2.5258593,11.370127 0.84902543,9.7243458 0.84902543,6.9296227 q 0,-1.7389388 0.90052187,-3.1363004 Q 2.6500692,2.3649083 4.4200605,1.5575438 6.2211043,0.71912692 8.79846,0.71912692 q 1.521571,0 2.670513,0.21736735 1.179994,0.21736733 2.546303,0.58999713 0.807365,0.2173673 1.211047,0.2794723 L 15.040008,7.2401475 H 12.55581 L 11.903708,3.4206926 Q 11.624236,3.1412203 10.785819,2.8928004 9.9474017,2.6133281 8.9226699,2.6133281 q -1.8631487,0 -2.8257756,0.8694694 -0.9315743,0.838417 -0.9315743,2.266831 0,1.1489417 0.6831545,1.9873586 0.714207,0.838417 1.7078864,1.4284141 0.9936793,0.5589446 3.1363001,1.6147288 1.738939,0.838417 2.981038,1.645781 1.242099,0.807365 2.142621,2.111569 0.900522,1.273152 0.900522,3.01209 0,1.707887 -0.869469,3.260511 -0.838417,1.552624 -2.794723,2.577355 -1.925254,1.024732 -4.9373445,1.024732 z"
       style="font-style:normal;font-variant:normal;font-weight:bold;font-stretch:normal;font-size:31.05247879px;font-family:Merriweather;-inkscape-font-specification:'Merriweather Bold';fill:#ffffff;fill-opacity:1;stroke-width:0.24647899"
       id="path10" />
  </g>

 </g><g transform="translate(150, 150) scale(1.5, 1) "> <g
     aria-label="C"
     transform="scale(0.88616223,1.1284615)"
     style="font-style:normal;font-weight:normal;font-size:9.16441441px;line-height:1.25;font-family:sans-serif;letter-spacing:0px;word-spacing:0px;fill:#ffffff;fill-opacity:1;stroke:none;stroke-width:0.2291103"
     id="text826">
    <path
       d="m 11.154537,22.574416 q -4.9069306,0 -7.5047172,-2.915294 -2.5977866,-2.944158 -2.5977866,-8.024274 0,-3.3482588 1.3566219,-5.8305883 Q 3.7941413,3.293066 6.1898778,1.9364441 8.5856144,0.57982215 11.616365,0.57982215 q 1.27003,0 2.453466,0.17318578 1.183436,0.14432148 2.799836,0.40410017 1.212301,0.20205 1.327758,0.20205 l -0.317507,5.946045 H 15.224402 L 14.329609,3.1776088 Q 14.012102,2.8601015 13.232766,2.6580515 12.45343,2.4560014 11.24113,2.4560014 q -2.4534655,0 -3.9544089,2.2802794 -1.4720791,2.2514151 -1.4720791,6.5521952 0,4.156459 1.4143505,6.78311 1.4143505,2.62665 4.1275945,2.62665 1.298893,0 1.991636,-0.230914 0.721608,-0.259779 1.212301,-0.721607 l 1.270029,-2.973023 2.424601,0.230915 -0.577286,4.473965 q -0.606151,0.05773 -1.212301,0.230915 -0.577286,0.144321 -0.721607,0.173186 -1.154572,0.317507 -2.164822,0.490693 -0.981386,0.20205 -2.424601,0.20205 z"
       style="font-style:normal;font-variant:normal;font-weight:bold;font-stretch:normal;font-size:28.86429596px;font-family:Merriweather;-inkscape-font-specification:'Merriweather Bold';fill:#ffffff;fill-opacity:1;stroke-width:0.2291103"
       id="path10" />
  </g>

 </g><g transform="translate(177, 150) scale(1.5, 1) "> <g
     aria-label="H"
     transform="scale(0.80360799,1.2443878)"
     style="font-style:normal;font-weight:normal;font-size:8.32963467px;line-height:1.25;font-family:sans-serif;letter-spacing:0px;word-spacing:0px;fill:#ffffff;fill-opacity:1;stroke:none;stroke-width:0.20824079"
     id="text826">
    <path
       d="M 2.8685014,2.6584454 0.9271063,2.3173895 V 0.69081521 H 8.9025674 V 2.3173895 L 6.6988215,2.6584454 V 9.2434478 H 14.674283 V 2.6584454 L 12.654182,2.3173895 V 0.69081521 h 7.870521 V 2.3173895 L 18.530838,2.6584454 V 18.347017 l 1.993865,0.262351 v 1.574104 h -7.896756 v -1.574104 l 2.046336,-0.262351 V 11.237313 H 6.6988215 v 7.109704 l 2.2037459,0.262351 v 1.574104 H 0.87463616 V 18.609368 L 2.8685014,18.347017 Z"
       style="font-style:normal;font-variant:normal;font-weight:bold;font-stretch:normal;font-size:26.23506927px;font-family:Merriweather;-inkscape-font-specification:'Merriweather Bold';fill:#ffffff;fill-opacity:1;stroke-width:0.20824079"
       id="path10" />
  </g>

 </g><g transform="translate(204, 150) scale(1.5, 1) "> <g
     aria-label="O"
     transform="scale(0.84766756,1.1797078)"
     style="font-style:normal;font-weight:normal;font-size:8.64939976px;line-height:1.25;font-family:sans-serif;letter-spacing:0px;word-spacing:0px;fill:#ffffff;fill-opacity:1;stroke:none;stroke-width:0.21623492"
     id="text826">
    <path
       d="m 9.7189946,21.40648 q -4.440479,0 -6.6470974,-2.778705 -2.20661845,-2.778705 -2.20661845,-7.573332 0,-3.1328538 1.14417255,-5.5029254 Q 3.180866,3.1814459 5.2785156,1.9010624 7.3761652,0.62067886 10.100385,0.62067886 q 4.494964,0 6.728825,2.66973584 2.261102,2.6424937 2.261102,7.4098793 0,3.160095 -1.198657,5.611894 -1.171414,2.424556 -3.296306,3.759424 -2.124892,1.334868 -4.8763544,1.334868 z M 9.9914167,2.2824532 q -2.2338607,0 -3.487002,2.2066185 -1.2531413,2.2066184 -1.2531413,6.5381283 0,4.277026 1.1986569,6.510887 1.2258991,2.206618 3.487002,2.206618 2.2066187,0 3.4597597,-2.315587 1.253141,-2.342829 1.253141,-6.728824 0,-4.2497837 -1.198657,-6.3201912 Q 12.252519,2.2824532 9.9914167,2.2824532 Z"
       style="font-style:normal;font-variant:normal;font-weight:bold;font-stretch:normal;font-size:27.24220276px;font-family:Merriweather;-inkscape-font-specification:'Merriweather Bold';fill:#ffffff;fill-opacity:1;stroke-width:0.21623492"
       id="path10" />
  </g>

 </g><g transform="translate(231, 150) scale(1.5, 1) "> <g
     aria-label="O"
     transform="scale(0.84766756,1.1797078)"
     style="font-style:normal;font-weight:normal;font-size:8.64939976px;line-height:1.25;font-family:sans-serif;letter-spacing:0px;word-spacing:0px;fill:#ffffff;fill-opacity:1;stroke:none;stroke-width:0.21623492"
     id="text826">
    <path
       d="m 9.7189946,21.40648 q -4.440479,0 -6.6470974,-2.778705 -2.20661845,-2.778705 -2.20661845,-7.573332 0,-3.1328538 1.14417255,-5.5029254 Q 3.180866,3.1814459 5.2785156,1.9010624 7.3761652,0.62067886 10.100385,0.62067886 q 4.494964,0 6.728825,2.66973584 2.261102,2.6424937 2.261102,7.4098793 0,3.160095 -1.198657,5.611894 -1.171414,2.424556 -3.296306,3.759424 -2.124892,1.334868 -4.8763544,1.334868 z M 9.9914167,2.2824532 q -2.2338607,0 -3.487002,2.2066185 -1.2531413,2.2066184 -1.2531413,6.5381283 0,4.277026 1.1986569,6.510887 1.2258991,2.206618 3.487002,2.206618 2.2066187,0 3.4597597,-2.315587 1.253141,-2.342829 1.253141,-6.728824 0,-4.2497837 -1.198657,-6.3201912 Q 12.252519,2.2824532 9.9914167,2.2824532 Z"
       style="font-style:normal;font-variant:normal;font-weight:bold;font-stretch:normal;font-size:27.24220276px;font-family:Merriweather;-inkscape-font-specification:'Merriweather Bold';fill:#ffffff;fill-opacity:1;stroke-width:0.21623492"
       id="path10" />
  </g>

 </g><g transform="translate(258, 150) scale(1.5, 1) "> <g
     aria-label="L"
     transform="scale(0.89571752,1.1164234)"
     style="font-style:normal;font-weight:normal;font-size:9.29911613px;line-height:1.25;font-family:sans-serif;letter-spacing:0px;word-spacing:0px;fill:#ffffff;fill-opacity:1;stroke:none;stroke-width:0.23247786"
     id="text826">
    <path
       d="M 3.2684628,2.932147 1.0132442,2.5513958 V 0.7355055 H 10.385581 V 2.5513958 L 7.5738801,2.932147 v 17.485266 l 6.2677499,-0.263597 1.845179,-5.476959 2.372373,0.322174 -0.907945,7.49787 H 0.95466705 V 20.739587 L 3.2684628,20.446702 Z"
       style="font-style:normal;font-variant:normal;font-weight:bold;font-stretch:normal;font-size:29.28855324px;font-family:Merriweather;-inkscape-font-specification:'Merriweather Bold';fill:#ffffff;fill-opacity:1;stroke-width:0.23247786"
       id="path10" />
  </g>

 </g> </svg>
