<?xml version="1.0" encoding="UTF-8" standalone="no"?>
<!-- translate-xy="150,150" -->

<svg
   xmlns:dc="http://purl.org/dc/elements/1.1/"
   xmlns:cc="http://creativecommons.org/ns#"
   xmlns:rdf="http://www.w3.org/1999/02/22-rdf-syntax-ns#"
   xmlns:svg="http://www.w3.org/2000/svg"
   xmlns="http://www.w3.org/2000/svg"
   xmlns:sodipodi="http://sodipodi.sourceforge.net/DTD/sodipodi-0.dtd"
   xmlns:inkscape="http://www.inkscape.org/namespaces/inkscape"
   width="300"
   height="300"
   viewBox="0 0 300 300"
   version="1.1"
   id="svg8"
   sodipodi:docname="traditional-round-no-frame-44aa44.svg"
   inkscape:version="0.92.3 (2405546, 2018-03-11)">
  <metadata
     id="metadata14">
    <rdf:RDF>
      <cc:Work
         rdf:about="">
        <dc:format>image/svg+xml</dc:format>
        <dc:type
           rdf:resource="http://purl.org/dc/dcmitype/StillImage" />
        <dc:title></dc:title>
      </cc:Work>
    </rdf:RDF>
  </metadata>
  <defs
     id="defs12" />
  <sodipodi:namedview
     pagecolor="#ffffff"
     bordercolor="#666666"
     borderopacity="1"
     objecttolerance="10"
     gridtolerance="10"
     guidetolerance="10"
     inkscape:pageopacity="0"
     inkscape:pageshadow="2"
     inkscape:window-width="1280"
     inkscape:window-height="737"
     id="namedview10"
     showgrid="false"
     inkscape:zoom="1.5733333"
     inkscape:cx="184.76554"
     inkscape:cy="177.89305"
     inkscape:window-x="-8"
     inkscape:window-y="-8"
     inkscape:window-maximized="1"
     inkscape:current-layer="svg8"
     inkscape:showpageshadow="false" />
  <circle
     id="circle822"
     cy="150"
     cx="150"
     style="fill:#000000;fill-opacity:1;stroke:none;stroke-width:3.24626827;stroke-opacity:1"
     r="145" />
  <g transform="translate(69, 150) scale(1.5, 1) "> <g
     aria-label="P"
     transform="scale(0.88291412,1.132613)"
     style="font-style:normal;font-weight:normal;font-size:9.13082314px;line-height:1.25;font-family:sans-serif;letter-spacing:0px;word-spacing:0px;fill:#ffffff;fill-opacity:1;stroke:none;stroke-width:0.22827052"
     id="text826">
    <path
       d="M 3.2758264,2.9646531 1.1189391,2.5907926 V 0.80776576 h 4.3425331 q 0.6039284,0 1.8693023,-0.057517 1.6679929,-0.11503399 3.0196425,-0.11503399 2.990883,0 4.716393,0.74772092 1.754269,0.7189624 2.473231,2.0993703 0.747721,1.3516494 0.747721,3.4510197 0,3.6235703 -2.271921,5.6366653 -2.243163,2.013095 -6.2405942,2.013095 -1.5817174,0 -2.2719213,-0.08628 v 5.665424 l 3.8536385,0.287585 v 1.72551 H 1.0039051 v -1.72551 L 3.2758264,20.162234 Z M 7.474567,12.656267 q 0.6614455,0.143792 2.2431628,0.143792 1.9268192,0 3.0771592,-1.322891 1.179098,-1.351649 1.179098,-4.4575668 0,-2.4157138 -1.064064,-3.5085367 -1.035306,-1.1215814 -3.1921932,-1.1215814 -0.8052379,0 -1.6679928,0.115034 -0.402619,0.057517 -0.57517,0.057517 z"
       style="font-style:normal;font-variant:normal;font-weight:bold;font-stretch:normal;font-size:28.75849724px;font-family:Merriweather;-inkscape-font-specification:'Merriweather Bold';fill:#ffffff;fill-opacity:1;stroke-width:0.22827052"
       id="path10" />
  </g>

 </g><g transform="translate(96, 150) scale(1.5, 1) "> <g
     aria-label="H"
     transform="scale(0.80360799,1.2443878)"
     style="font-style:normal;font-weight:normal;font-size:8.32963467px;line-height:1.25;font-family:sans-serif;letter-spacing:0px;word-spacing:0px;fill:#ffffff;fill-opacity:1;stroke:none;stroke-width:0.20824079"
     id="text826">
    <path
       d="M 2.8685014,2.6584454 0.9271063,2.3173895 V 0.69081521 H 8.9025674 V 2.3173895 L 6.6988215,2.6584454 V 9.2434478 H 14.674283 V 2.6584454 L 12.654182,2.3173895 V 0.69081521 h 7.870521 V 2.3173895 L 18.530838,2.6584454 V 18.347017 l 1.993865,0.262351 v 1.574104 h -7.896756 v -1.574104 l 2.046336,-0.262351 V 11.237313 H 6.6988215 v 7.109704 l 2.2037459,0.262351 v 1.574104 H 0.87463616 V 18.609368 L 2.8685014,18.347017 Z"
       style="font-style:normal;font-variant:normal;font-weight:bold;font-stretch:normal;font-size:26.23506927px;font-family:Merriweather;-inkscape-font-specification:'Merriweather Bold';fill:#ffffff;fill-opacity:1;stroke-width:0.20824079"
       id="path10" />
  </g>

 </g><g transform="translate(123, 150) scale(1.5, 1) "> <g
     aria-label="Y"
     transform="scale(0.84066023,1.1895412)"
     style="font-style:normal;font-weight:normal;font-size:8.71629906px;line-height:1.25;font-family:sans-serif;letter-spacing:0px;word-spacing:0px;fill:#ffffff;fill-opacity:1;stroke:none;stroke-width:0.2179074"
     id="text826">
    <path
       d="M 7.8352402,13.01547 1.9603176,2.775535 0.39550172,2.4186472 V 0.71656679 H 8.4666571 V 2.4186472 L 6.5175005,2.775535 9.9491142,9.5014978 10.717796,11.395749 11.51393,9.5014978 14.671015,2.775535 12.529688,2.4186472 V 0.71656679 h 6.69851 V 2.4186472 L 17.526117,2.7480821 12.062988,12.988017 v 6.204358 l 2.992367,0.274529 v 1.647175 H 4.9252318 v -1.647175 l 2.9100084,-0.274529 z"
       style="font-style:normal;font-variant:normal;font-weight:bold;font-stretch:normal;font-size:27.45290947px;font-family:Merriweather;-inkscape-font-specification:'Merriweather Bold';fill:#ffffff;fill-opacity:1;stroke-width:0.2179074"
       id="path10" />
  </g>

 </g><g transform="translate(150, 150) scale(1.5, 1) "> <g
     aria-label="S"
     transform="scale(0.96302891,1.0383904)"
     style="font-style:normal;font-weight:normal;font-size:9.85916138px;line-height:1.25;font-family:sans-serif;letter-spacing:0px;word-spacing:0px;fill:#ffffff;fill-opacity:1;stroke:none;stroke-width:0.24647899"
     id="text826">
    <path
       d="m 8.1153055,24.412168 q -1.6768339,0 -3.0120905,-0.279472 Q 3.7679584,23.853224 2.1221771,23.387436 1.0353403,23.076912 0.66271056,23.045859 L 0.94218287,17.301151 H 3.4574337 l 0.6831545,4.005769 q 0.4036822,0.434735 1.428414,0.776312 1.0557843,0.341578 2.3910409,0.341578 2.0805159,0 3.1052479,-0.900522 1.055784,-0.931575 1.055784,-2.577356 0,-1.086837 -0.621049,-1.863149 Q 10.878976,16.276419 9.7921393,15.655369 8.7053026,15.003267 6.8111014,14.16485 4.2337456,12.984856 2.5258593,11.370127 0.84902543,9.7243458 0.84902543,6.9296227 q 0,-1.7389388 0.90052187,-3.1363004 Q 2.6500692,2.3649083 4.4200605,1.5575438 6.2211043,0.71912692 8.79846,0.71912692 q 1.521571,0 2.670513,0.21736735 1.179994,0.21736733 2.546303,0.58999713 0.807365,0.2173673 1.211047,0.2794723 L 15.040008,7.2401475 H 12.55581 L 11.903708,3.4206926 Q 11.624236,3.1412203 10.785819,2.8928004 9.9474017,2.6133281 8.9226699,2.6133281 q -1.8631487,0 -2.8257756,0.8694694 -0.9315743,0.838417 -0.9315743,2.266831 0,1.1489417 0.6831545,1.9873586 0.714207,0.838417 1.7078864,1.4284141 0.9936793,0.5589446 3.1363001,1.6147288 1.738939,0.838417 2.981038,1.645781 1.242099,0.807365 2.142621,2.111569 0.900522,1.273152 0.900522,3.01209 0,1.707887 -0.869469,3.260511 -0.838417,1.552624 -2.794723,2.577355 -1.925254,1.024732 -4.9373445,1.024732 z"
       style="font-style:normal;font-variant:normal;font-weight:bold;font-stretch:normal;font-size:31.05247879px;font-family:Merriweather;-inkscape-font-specification:'Merriweather Bold';fill:#ffffff;fill-opacity:1;stroke-width:0.24647899"
       id="path10" />
  </g>

 </g><g transform="translate(177, 150) scale(1.5, 1) "> <g
     aria-label="E"
     transform="scale(0.88381453,1.1314591)"
     style="font-style:normal;font-weight:normal;font-size:9.17554283px;line-height:1.25;font-family:sans-serif;letter-spacing:0px;word-spacing:0px;fill:#ffffff;fill-opacity:1;stroke:none;stroke-width:0.22938848"
     id="text826">
    <path
       d="M 3.2293086,2.9208016 0.9173611,2.5451101 V 0.75335084 H 16.320711 L 16.696403,5.6084405 H 14.673449 L 13.71977,2.7474055 7.4775121,2.4873114 v 7.7739236 l 4.0170089,-0.0867 0.462389,-2.3697464 h 1.849558 V 14.798432 H 11.95691 l -0.462389,-2.485344 -4.0170089,-0.0867 v 8.149615 l 6.9936409,-0.346792 1.676162,-3.699116 2.167451,0.606886 -0.751383,5.28858 H 0.94626044 V 20.491602 L 3.2293086,20.202609 Z"
       style="font-style:normal;font-variant:normal;font-weight:bold;font-stretch:normal;font-size:28.89934349px;font-family:Merriweather;-inkscape-font-specification:'Merriweather Bold';fill:#ffffff;fill-opacity:1;stroke-width:0.22938848"
       id="path10" />
  </g>

 </g><g transform="translate(204, 150) scale(1.5, 1) "> <g
     aria-label="O"
     transform="scale(0.84766756,1.1797078)"
     style="font-style:normal;font-weight:normal;font-size:8.64939976px;line-height:1.25;font-family:sans-serif;letter-spacing:0px;word-spacing:0px;fill:#ffffff;fill-opacity:1;stroke:none;stroke-width:0.21623492"
     id="text826">
    <path
       d="m 9.7189946,21.40648 q -4.440479,0 -6.6470974,-2.778705 -2.20661845,-2.778705 -2.20661845,-7.573332 0,-3.1328538 1.14417255,-5.5029254 Q 3.180866,3.1814459 5.2785156,1.9010624 7.3761652,0.62067886 10.100385,0.62067886 q 4.494964,0 6.728825,2.66973584 2.261102,2.6424937 2.261102,7.4098793 0,3.160095 -1.198657,5.611894 -1.171414,2.424556 -3.296306,3.759424 -2.124892,1.334868 -4.8763544,1.334868 z M 9.9914167,2.2824532 q -2.2338607,0 -3.487002,2.2066185 -1.2531413,2.2066184 -1.2531413,6.5381283 0,4.277026 1.1986569,6.510887 1.2258991,2.206618 3.487002,2.206618 2.2066187,0 3.4597597,-2.315587 1.253141,-2.342829 1.253141,-6.728824 0,-4.2497837 -1.198657,-6.3201912 Q 12.252519,2.2824532 9.9914167,2.2824532 Z"
       style="font-style:normal;font-variant:normal;font-weight:bold;font-stretch:normal;font-size:27.24220276px;font-family:Merriweather;-inkscape-font-specification:'Merriweather Bold';fill:#ffffff;fill-opacity:1;stroke-width:0.21623492"
       id="path10" />
  </g>

 </g> </svg>
