<?xml version="1.0" encoding="UTF-8" standalone="no"?>
<!-- translate-xy="150,150" -->

<svg
   xmlns:dc="http://purl.org/dc/elements/1.1/"
   xmlns:cc="http://creativecommons.org/ns#"
   xmlns:rdf="http://www.w3.org/1999/02/22-rdf-syntax-ns#"
   xmlns:svg="http://www.w3.org/2000/svg"
   xmlns="http://www.w3.org/2000/svg"
   xmlns:sodipodi="http://sodipodi.sourceforge.net/DTD/sodipodi-0.dtd"
   xmlns:inkscape="http://www.inkscape.org/namespaces/inkscape"
   width="300"
   height="300"
   viewBox="0 0 300 300"
   version="1.1"
   id="svg8"
   sodipodi:docname="traditional-round-no-frame-44aa44.svg"
   inkscape:version="0.92.3 (2405546, 2018-03-11)">
  <metadata
     id="metadata14">
    <rdf:RDF>
      <cc:Work
         rdf:about="">
        <dc:format>image/svg+xml</dc:format>
        <dc:type
           rdf:resource="http://purl.org/dc/dcmitype/StillImage" />
        <dc:title></dc:title>
      </cc:Work>
    </rdf:RDF>
  </metadata>
  <defs
     id="defs12" />
  <sodipodi:namedview
     pagecolor="#ffffff"
     bordercolor="#666666"
     borderopacity="1"
     objecttolerance="10"
     gridtolerance="10"
     guidetolerance="10"
     inkscape:pageopacity="0"
     inkscape:pageshadow="2"
     inkscape:window-width="1280"
     inkscape:window-height="737"
     id="namedview10"
     showgrid="false"
     inkscape:zoom="1.5733333"
     inkscape:cx="184.76554"
     inkscape:cy="177.89305"
     inkscape:window-x="-8"
     inkscape:window-y="-8"
     inkscape:window-maximized="1"
     inkscape:current-layer="svg8"
     inkscape:showpageshadow="false" />
  <circle
     id="circle822"
     cy="150"
     cx="150"
     style="fill:#000000;fill-opacity:1;stroke:none;stroke-width:3.24626827;stroke-opacity:1"
     r="145" />
  <g transform="translate(29, 150) scale(1.5, 1) "> <g
     aria-label="R"
     transform="scale(0.84157802,1.188244)"
     style="font-style:normal;font-weight:normal;font-size:8.70333862px;line-height:1.25;font-family:sans-serif;letter-spacing:0px;word-spacing:0px;fill:#ffffff;fill-opacity:1;stroke:none;stroke-width:0.2175834"
     id="text826">
    <path
       d="M 0.84603595,19.492403 3.0115911,19.218283 V 2.8258525 L 0.95568431,2.4420832 V 0.76994574 H 4.9304374 q 0.5208297,0 1.1513078,-0.0274121 0.6304781,-0.0274121 0.9594232,-0.0548242 1.4254287,-0.10964837 2.3574397,-0.10964837 2.8234449,0 4.5229949,0.5756539 1.69955,0.5756539 2.467088,1.7543738 0.767539,1.1787199 0.767539,3.0975662 0,1.8914342 -1.014248,3.5087475 -1.014247,1.6173135 -2.933093,2.2203795 1.096483,0.466005 1.946258,1.699549 0.849775,1.233545 1.809198,3.207215 0.685302,1.343192 1.041659,1.946258 0.38377,0.575654 0.740127,0.657891 l 0.904599,0.274121 v 1.617313 h -4.660055 q -0.438594,0 -0.932012,-0.877187 Q 13.592658,19.355343 12.825119,17.436497 11.92052,15.188705 11.26263,13.927749 10.60474,12.666793 9.8646137,12.36526 H 7.0411684 v 6.853023 l 2.5219123,0.27412 v 1.644726 H 0.84603595 Z M 9.5630807,10.693122 q 1.5624893,0 2.4396763,-1.1238953 0.877187,-1.1238957 0.877187,-3.3716871 0,-2.0010826 -0.877187,-2.9605057 -0.849775,-0.9594232 -2.9605061,-0.9594232 -0.7675385,0 -1.3157803,0.082236 -0.5208297,0.054824 -0.6853022,0.054824 v 8.2236268 q 0.328945,0.05482 1.5899012,0.05482 z"
       style="font-style:normal;font-variant:normal;font-weight:bold;font-stretch:normal;font-size:27.4120903px;font-family:Merriweather;-inkscape-font-specification:'Merriweather Bold';fill:#ffffff;fill-opacity:1;stroke-width:0.2175834"
       id="path10" />
  </g>

 </g><g transform="translate(56, 150) scale(1.5, 1) "> <g
     aria-label="E"
     transform="scale(0.88381453,1.1314591)"
     style="font-style:normal;font-weight:normal;font-size:9.17554283px;line-height:1.25;font-family:sans-serif;letter-spacing:0px;word-spacing:0px;fill:#ffffff;fill-opacity:1;stroke:none;stroke-width:0.22938848"
     id="text826">
    <path
       d="M 3.2293086,2.9208016 0.9173611,2.5451101 V 0.75335084 H 16.320711 L 16.696403,5.6084405 H 14.673449 L 13.71977,2.7474055 7.4775121,2.4873114 v 7.7739236 l 4.0170089,-0.0867 0.462389,-2.3697464 h 1.849558 V 14.798432 H 11.95691 l -0.462389,-2.485344 -4.0170089,-0.0867 v 8.149615 l 6.9936409,-0.346792 1.676162,-3.699116 2.167451,0.606886 -0.751383,5.28858 H 0.94626044 V 20.491602 L 3.2293086,20.202609 Z"
       style="font-style:normal;font-variant:normal;font-weight:bold;font-stretch:normal;font-size:28.89934349px;font-family:Merriweather;-inkscape-font-specification:'Merriweather Bold';fill:#ffffff;fill-opacity:1;stroke-width:0.22938848"
       id="path10" />
  </g>

 </g><g transform="translate(83, 150) scale(1.5, 1) "> <g
     aria-label="S"
     transform="scale(0.96302891,1.0383904)"
     style="font-style:normal;font-weight:normal;font-size:9.85916138px;line-height:1.25;font-family:sans-serif;letter-spacing:0px;word-spacing:0px;fill:#ffffff;fill-opacity:1;stroke:none;stroke-width:0.24647899"
     id="text826">
    <path
       d="m 8.1153055,24.412168 q -1.6768339,0 -3.0120905,-0.279472 Q 3.7679584,23.853224 2.1221771,23.387436 1.0353403,23.076912 0.66271056,23.045859 L 0.94218287,17.301151 H 3.4574337 l 0.6831545,4.005769 q 0.4036822,0.434735 1.428414,0.776312 1.0557843,0.341578 2.3910409,0.341578 2.0805159,0 3.1052479,-0.900522 1.055784,-0.931575 1.055784,-2.577356 0,-1.086837 -0.621049,-1.863149 Q 10.878976,16.276419 9.7921393,15.655369 8.7053026,15.003267 6.8111014,14.16485 4.2337456,12.984856 2.5258593,11.370127 0.84902543,9.7243458 0.84902543,6.9296227 q 0,-1.7389388 0.90052187,-3.1363004 Q 2.6500692,2.3649083 4.4200605,1.5575438 6.2211043,0.71912692 8.79846,0.71912692 q 1.521571,0 2.670513,0.21736735 1.179994,0.21736733 2.546303,0.58999713 0.807365,0.2173673 1.211047,0.2794723 L 15.040008,7.2401475 H 12.55581 L 11.903708,3.4206926 Q 11.624236,3.1412203 10.785819,2.8928004 9.9474017,2.6133281 8.9226699,2.6133281 q -1.8631487,0 -2.8257756,0.8694694 -0.9315743,0.838417 -0.9315743,2.266831 0,1.1489417 0.6831545,1.9873586 0.714207,0.838417 1.7078864,1.4284141 0.9936793,0.5589446 3.1363001,1.6147288 1.738939,0.838417 2.981038,1.645781 1.242099,0.807365 2.142621,2.111569 0.900522,1.273152 0.900522,3.01209 0,1.707887 -0.869469,3.260511 -0.838417,1.552624 -2.794723,2.577355 -1.925254,1.024732 -4.9373445,1.024732 z"
       style="font-style:normal;font-variant:normal;font-weight:bold;font-stretch:normal;font-size:31.05247879px;font-family:Merriweather;-inkscape-font-specification:'Merriweather Bold';fill:#ffffff;fill-opacity:1;stroke-width:0.24647899"
       id="path10" />
  </g>

 </g><g transform="translate(110, 150) scale(1.5, 1) "> <g
     aria-label="I"
     transform="scale(0.87083535,1.1483227)"
     style="font-style:normal;font-weight:normal;font-size:9.03880024px;line-height:1.25;font-family:sans-serif;letter-spacing:0px;word-spacing:0px;fill:#ffffff;fill-opacity:1;stroke:none;stroke-width:0.22596996"
     id="text826">
    <path
       d="M 7.625593,3.0858071 1.3488193,2.7157145 V 0.71974221 H 18.071168 V 2.7157145 L 11.810487,3.0858071 V 19.648238 l 6.260681,0.313156 V 21.87196 H 1.3488193 V 19.932925 L 7.625593,19.648238 Z"
       style="font-style:normal;font-variant:normal;font-weight:bold;font-stretch:normal;font-size:28.46866417px;font-family:Merriweather;-inkscape-font-specification:'Merriweather Bold';fill:#ffffff;fill-opacity:1;stroke-width:0.22596996"
       id="path10"
       inkscape:connector-curvature="0"
       sodipodi:nodetypes="ccccccccccccc" />
  </g>

 </g><g transform="translate(137, 150) scale(1.5, 1) "> <g
     aria-label="D"
     transform="scale(0.83331144,1.2000315)"
     style="font-style:normal;font-weight:normal;font-size:8.61784744px;line-height:1.25;font-family:sans-serif;letter-spacing:0px;word-spacing:0px;fill:#ffffff;fill-opacity:1;stroke:none;stroke-width:0.21544613"
     id="text826">
    <path
       d="M 2.9563382,2.7980953 0.92062615,2.4452385 V 0.7623832 H 4.883479 q 0.8957134,0 2.4157117,-0.10857131 0.3528568,-0.0271428 1.0585703,-0.0542857 0.7328564,-0.0271428 1.3028558,-0.0271428 4.9942802,0 7.4642772,2.4971402 2.497141,2.4971402 2.497141,7.0842784 0,3.202853 -1.24857,5.699994 -1.221428,2.49714 -3.501425,3.908567 -2.279998,1.384284 -5.3199945,1.384284 -0.7871421,0 -2.4699974,-0.108571 -1.574284,-0.108572 -2.1442834,-0.108572 H 0.81205484 V 19.300935 L 2.9563382,19.029506 Z M 6.8920483,19.110935 q 0.9228562,0.244285 2.5785687,0.244285 2.714283,-0.05429 4.261424,-2.171426 1.547141,-2.144283 1.547141,-6.405707 0,-4.0442816 -1.519998,-6.2428507 -1.519999,-2.2257119 -4.7228523,-2.2257119 -0.6785707,0 -1.3028557,0.081428 -0.5971422,0.081429 -0.8414277,0.1085713 z"
       style="font-style:normal;font-variant:normal;font-weight:bold;font-stretch:normal;font-size:27.14282799px;font-family:Merriweather;-inkscape-font-specification:'Merriweather Bold';fill:#ffffff;fill-opacity:1;stroke-width:0.21544613"
       id="path10" />
  </g>

 </g><g transform="translate(164, 150) scale(1.5, 1) "> <g
     aria-label="E"
     transform="scale(0.88381453,1.1314591)"
     style="font-style:normal;font-weight:normal;font-size:9.17554283px;line-height:1.25;font-family:sans-serif;letter-spacing:0px;word-spacing:0px;fill:#ffffff;fill-opacity:1;stroke:none;stroke-width:0.22938848"
     id="text826">
    <path
       d="M 3.2293086,2.9208016 0.9173611,2.5451101 V 0.75335084 H 16.320711 L 16.696403,5.6084405 H 14.673449 L 13.71977,2.7474055 7.4775121,2.4873114 v 7.7739236 l 4.0170089,-0.0867 0.462389,-2.3697464 h 1.849558 V 14.798432 H 11.95691 l -0.462389,-2.485344 -4.0170089,-0.0867 v 8.149615 l 6.9936409,-0.346792 1.676162,-3.699116 2.167451,0.606886 -0.751383,5.28858 H 0.94626044 V 20.491602 L 3.2293086,20.202609 Z"
       style="font-style:normal;font-variant:normal;font-weight:bold;font-stretch:normal;font-size:28.89934349px;font-family:Merriweather;-inkscape-font-specification:'Merriweather Bold';fill:#ffffff;fill-opacity:1;stroke-width:0.22938848"
       id="path10" />
  </g>

 </g><g transform="translate(191, 150) scale(1.5, 1) "> <g
     aria-label="N"
     transform="scale(0.81458821,1.2276141)"
     style="font-style:normal;font-weight:normal;font-size:8.44344711px;line-height:1.25;font-family:sans-serif;letter-spacing:0px;word-spacing:0px;fill:#ffffff;fill-opacity:1;stroke:none;stroke-width:0.21108614"
     id="text826">
    <path
       d="M 2.7286445,2.6947704 0.62775531,2.3490544 V 0.70025529 H 6.6644876 C 9.9140164,5.6787226 11.932525,9.3678476 15.618244,15.44445 L 15.541518,2.6947704 13.791555,2.3490544 V 0.70025529 h 6.595196 V 2.3490544 l -2.047702,0.345716 V 20.459251 H 15.121232 C 11.645608,15.13525 9.7190568,11.871944 5.679628,5.6429571 V 18.597704 l 1.9954139,0.265935 v 1.595612 H 0.62775531 V 18.863639 L 2.7286445,18.597704 Z"
       style="font-style:normal;font-variant:normal;font-weight:bold;font-stretch:normal;font-size:26.59353447px;font-family:Merriweather;-inkscape-font-specification:'Merriweather Bold';fill:#ffffff;fill-opacity:1;stroke-width:0.21108614"
       id="path10"
       inkscape:connector-curvature="0"
       sodipodi:nodetypes="ccccccccccccccccccccc" />
  </g>

 </g><g transform="translate(218, 150) scale(1.5, 1) "> <g
     aria-label="C"
     transform="scale(0.88616223,1.1284615)"
     style="font-style:normal;font-weight:normal;font-size:9.16441441px;line-height:1.25;font-family:sans-serif;letter-spacing:0px;word-spacing:0px;fill:#ffffff;fill-opacity:1;stroke:none;stroke-width:0.2291103"
     id="text826">
    <path
       d="m 11.154537,22.574416 q -4.9069306,0 -7.5047172,-2.915294 -2.5977866,-2.944158 -2.5977866,-8.024274 0,-3.3482588 1.3566219,-5.8305883 Q 3.7941413,3.293066 6.1898778,1.9364441 8.5856144,0.57982215 11.616365,0.57982215 q 1.27003,0 2.453466,0.17318578 1.183436,0.14432148 2.799836,0.40410017 1.212301,0.20205 1.327758,0.20205 l -0.317507,5.946045 H 15.224402 L 14.329609,3.1776088 Q 14.012102,2.8601015 13.232766,2.6580515 12.45343,2.4560014 11.24113,2.4560014 q -2.4534655,0 -3.9544089,2.2802794 -1.4720791,2.2514151 -1.4720791,6.5521952 0,4.156459 1.4143505,6.78311 1.4143505,2.62665 4.1275945,2.62665 1.298893,0 1.991636,-0.230914 0.721608,-0.259779 1.212301,-0.721607 l 1.270029,-2.973023 2.424601,0.230915 -0.577286,4.473965 q -0.606151,0.05773 -1.212301,0.230915 -0.577286,0.144321 -0.721607,0.173186 -1.154572,0.317507 -2.164822,0.490693 -0.981386,0.20205 -2.424601,0.20205 z"
       style="font-style:normal;font-variant:normal;font-weight:bold;font-stretch:normal;font-size:28.86429596px;font-family:Merriweather;-inkscape-font-specification:'Merriweather Bold';fill:#ffffff;fill-opacity:1;stroke-width:0.2291103"
       id="path10" />
  </g>

 </g><g transform="translate(245, 150) scale(1.5, 1) "> <g
     aria-label="Y"
     transform="scale(0.84066023,1.1895412)"
     style="font-style:normal;font-weight:normal;font-size:8.71629906px;line-height:1.25;font-family:sans-serif;letter-spacing:0px;word-spacing:0px;fill:#ffffff;fill-opacity:1;stroke:none;stroke-width:0.2179074"
     id="text826">
    <path
       d="M 7.8352402,13.01547 1.9603176,2.775535 0.39550172,2.4186472 V 0.71656679 H 8.4666571 V 2.4186472 L 6.5175005,2.775535 9.9491142,9.5014978 10.717796,11.395749 11.51393,9.5014978 14.671015,2.775535 12.529688,2.4186472 V 0.71656679 h 6.69851 V 2.4186472 L 17.526117,2.7480821 12.062988,12.988017 v 6.204358 l 2.992367,0.274529 v 1.647175 H 4.9252318 v -1.647175 l 2.9100084,-0.274529 z"
       style="font-style:normal;font-variant:normal;font-weight:bold;font-stretch:normal;font-size:27.45290947px;font-family:Merriweather;-inkscape-font-specification:'Merriweather Bold';fill:#ffffff;fill-opacity:1;stroke-width:0.2179074"
       id="path10" />
  </g>

 </g> </svg>
