<?xml version="1.0" encoding="UTF-8" standalone="no"?>
<!-- translate-xy="150,150" -->

<svg
   xmlns:dc="http://purl.org/dc/elements/1.1/"
   xmlns:cc="http://creativecommons.org/ns#"
   xmlns:rdf="http://www.w3.org/1999/02/22-rdf-syntax-ns#"
   xmlns:svg="http://www.w3.org/2000/svg"
   xmlns="http://www.w3.org/2000/svg"
   xmlns:sodipodi="http://sodipodi.sourceforge.net/DTD/sodipodi-0.dtd"
   xmlns:inkscape="http://www.inkscape.org/namespaces/inkscape"
   width="300"
   height="300"
   viewBox="0 0 300 300"
   version="1.1"
   id="svg8"
   sodipodi:docname="traditional-round-no-frame-44aa44.svg"
   inkscape:version="0.92.3 (2405546, 2018-03-11)">
  <metadata
     id="metadata14">
    <rdf:RDF>
      <cc:Work
         rdf:about="">
        <dc:format>image/svg+xml</dc:format>
        <dc:type
           rdf:resource="http://purl.org/dc/dcmitype/StillImage" />
        <dc:title></dc:title>
      </cc:Work>
    </rdf:RDF>
  </metadata>
  <defs
     id="defs12" />
  <sodipodi:namedview
     pagecolor="#ffffff"
     bordercolor="#666666"
     borderopacity="1"
     objecttolerance="10"
     gridtolerance="10"
     guidetolerance="10"
     inkscape:pageopacity="0"
     inkscape:pageshadow="2"
     inkscape:window-width="1280"
     inkscape:window-height="737"
     id="namedview10"
     showgrid="false"
     inkscape:zoom="1.5733333"
     inkscape:cx="184.76554"
     inkscape:cy="177.89305"
     inkscape:window-x="-8"
     inkscape:window-y="-8"
     inkscape:window-maximized="1"
     inkscape:current-layer="svg8"
     inkscape:showpageshadow="false" />
  <circle
     id="circle822"
     cy="150"
     cx="150"
     style="fill:#000000;fill-opacity:1;stroke:none;stroke-width:3.24626827;stroke-opacity:1"
     r="145" />
  <g transform="translate(29, 150) scale(1.5, 1) "> <g
     aria-label="U"
     transform="scale(0.83146164,1.2027013)"
     style="font-style:normal;font-weight:normal;font-size:8.59871769px;line-height:1.25;font-family:sans-serif;letter-spacing:0px;word-spacing:0px;fill:#ffffff;fill-opacity:1;stroke:none;stroke-width:0.21496789"
     id="text826">
    <path
       d="m 10.343204,20.995774 c -2.7443675,0 -4.7845881,-0.686092 -6.1206618,-2.058275 C 2.8864685,17.565315 2.2184317,15.407736 2.2184317,12.464763 V 2.6879538 L 0.43098175,2.3358803 V 0.65676066 H 8.6099194 V 2.3358803 L 6.3079005,2.7150363 V 12.816837 c 0,4.297102 1.1498077,5.666158 4.2011115,5.666158 1.498569,0 2.608954,-0.550679 3.331156,-1.652037 0.722202,-1.119414 0.843042,-1.901706 0.857796,-3.905791 V 2.7150363 l -1.72775,-0.379156 V 0.65676066 h 6.770644 V 2.3358803 L 17.899243,2.6879538 V 12.708506 c 0,2.816588 -0.686092,4.901946 -2.058276,6.256075 -1.354129,1.354129 -3.186716,2.031193 -5.497763,2.031193 z"
       style="font-style:normal;font-variant:normal;font-weight:bold;font-stretch:normal;font-size:27.08257484px;font-family:Merriweather;-inkscape-font-specification:'Merriweather Bold';fill:#ffffff;fill-opacity:1;stroke-width:0.21496789"
       id="path10"
       inkscape:connector-curvature="0"
       sodipodi:nodetypes="sssccccccsscsccccccscs" />
  </g>

 </g><g transform="translate(56, 150) scale(1.5, 1) "> <g
     aria-label="N"
     transform="scale(0.81458821,1.2276141)"
     style="font-style:normal;font-weight:normal;font-size:8.44344711px;line-height:1.25;font-family:sans-serif;letter-spacing:0px;word-spacing:0px;fill:#ffffff;fill-opacity:1;stroke:none;stroke-width:0.21108614"
     id="text826">
    <path
       d="M 2.7286445,2.6947704 0.62775531,2.3490544 V 0.70025529 H 6.6644876 C 9.9140164,5.6787226 11.932525,9.3678476 15.618244,15.44445 L 15.541518,2.6947704 13.791555,2.3490544 V 0.70025529 h 6.595196 V 2.3490544 l -2.047702,0.345716 V 20.459251 H 15.121232 C 11.645608,15.13525 9.7190568,11.871944 5.679628,5.6429571 V 18.597704 l 1.9954139,0.265935 v 1.595612 H 0.62775531 V 18.863639 L 2.7286445,18.597704 Z"
       style="font-style:normal;font-variant:normal;font-weight:bold;font-stretch:normal;font-size:26.59353447px;font-family:Merriweather;-inkscape-font-specification:'Merriweather Bold';fill:#ffffff;fill-opacity:1;stroke-width:0.21108614"
       id="path10"
       inkscape:connector-curvature="0"
       sodipodi:nodetypes="ccccccccccccccccccccc" />
  </g>

 </g><g transform="translate(83, 150) scale(1.5, 1) "> <g
     aria-label="D"
     transform="scale(0.83331144,1.2000315)"
     style="font-style:normal;font-weight:normal;font-size:8.61784744px;line-height:1.25;font-family:sans-serif;letter-spacing:0px;word-spacing:0px;fill:#ffffff;fill-opacity:1;stroke:none;stroke-width:0.21544613"
     id="text826">
    <path
       d="M 2.9563382,2.7980953 0.92062615,2.4452385 V 0.7623832 H 4.883479 q 0.8957134,0 2.4157117,-0.10857131 0.3528568,-0.0271428 1.0585703,-0.0542857 0.7328564,-0.0271428 1.3028558,-0.0271428 4.9942802,0 7.4642772,2.4971402 2.497141,2.4971402 2.497141,7.0842784 0,3.202853 -1.24857,5.699994 -1.221428,2.49714 -3.501425,3.908567 -2.279998,1.384284 -5.3199945,1.384284 -0.7871421,0 -2.4699974,-0.108571 -1.574284,-0.108572 -2.1442834,-0.108572 H 0.81205484 V 19.300935 L 2.9563382,19.029506 Z M 6.8920483,19.110935 q 0.9228562,0.244285 2.5785687,0.244285 2.714283,-0.05429 4.261424,-2.171426 1.547141,-2.144283 1.547141,-6.405707 0,-4.0442816 -1.519998,-6.2428507 -1.519999,-2.2257119 -4.7228523,-2.2257119 -0.6785707,0 -1.3028557,0.081428 -0.5971422,0.081429 -0.8414277,0.1085713 z"
       style="font-style:normal;font-variant:normal;font-weight:bold;font-stretch:normal;font-size:27.14282799px;font-family:Merriweather;-inkscape-font-specification:'Merriweather Bold';fill:#ffffff;fill-opacity:1;stroke-width:0.21544613"
       id="path10" />
  </g>

 </g><g transform="translate(110, 150) scale(1.5, 1) "> <g
     aria-label="E"
     transform="scale(0.88381453,1.1314591)"
     style="font-style:normal;font-weight:normal;font-size:9.17554283px;line-height:1.25;font-family:sans-serif;letter-spacing:0px;word-spacing:0px;fill:#ffffff;fill-opacity:1;stroke:none;stroke-width:0.22938848"
     id="text826">
    <path
       d="M 3.2293086,2.9208016 0.9173611,2.5451101 V 0.75335084 H 16.320711 L 16.696403,5.6084405 H 14.673449 L 13.71977,2.7474055 7.4775121,2.4873114 v 7.7739236 l 4.0170089,-0.0867 0.462389,-2.3697464 h 1.849558 V 14.798432 H 11.95691 l -0.462389,-2.485344 -4.0170089,-0.0867 v 8.149615 l 6.9936409,-0.346792 1.676162,-3.699116 2.167451,0.606886 -0.751383,5.28858 H 0.94626044 V 20.491602 L 3.2293086,20.202609 Z"
       style="font-style:normal;font-variant:normal;font-weight:bold;font-stretch:normal;font-size:28.89934349px;font-family:Merriweather;-inkscape-font-specification:'Merriweather Bold';fill:#ffffff;fill-opacity:1;stroke-width:0.22938848"
       id="path10" />
  </g>

 </g><g transform="translate(137, 150) scale(1.5, 1) "> <g
     aria-label="R"
     transform="scale(0.84157802,1.188244)"
     style="font-style:normal;font-weight:normal;font-size:8.70333862px;line-height:1.25;font-family:sans-serif;letter-spacing:0px;word-spacing:0px;fill:#ffffff;fill-opacity:1;stroke:none;stroke-width:0.2175834"
     id="text826">
    <path
       d="M 0.84603595,19.492403 3.0115911,19.218283 V 2.8258525 L 0.95568431,2.4420832 V 0.76994574 H 4.9304374 q 0.5208297,0 1.1513078,-0.0274121 0.6304781,-0.0274121 0.9594232,-0.0548242 1.4254287,-0.10964837 2.3574397,-0.10964837 2.8234449,0 4.5229949,0.5756539 1.69955,0.5756539 2.467088,1.7543738 0.767539,1.1787199 0.767539,3.0975662 0,1.8914342 -1.014248,3.5087475 -1.014247,1.6173135 -2.933093,2.2203795 1.096483,0.466005 1.946258,1.699549 0.849775,1.233545 1.809198,3.207215 0.685302,1.343192 1.041659,1.946258 0.38377,0.575654 0.740127,0.657891 l 0.904599,0.274121 v 1.617313 h -4.660055 q -0.438594,0 -0.932012,-0.877187 Q 13.592658,19.355343 12.825119,17.436497 11.92052,15.188705 11.26263,13.927749 10.60474,12.666793 9.8646137,12.36526 H 7.0411684 v 6.853023 l 2.5219123,0.27412 v 1.644726 H 0.84603595 Z M 9.5630807,10.693122 q 1.5624893,0 2.4396763,-1.1238953 0.877187,-1.1238957 0.877187,-3.3716871 0,-2.0010826 -0.877187,-2.9605057 -0.849775,-0.9594232 -2.9605061,-0.9594232 -0.7675385,0 -1.3157803,0.082236 -0.5208297,0.054824 -0.6853022,0.054824 v 8.2236268 q 0.328945,0.05482 1.5899012,0.05482 z"
       style="font-style:normal;font-variant:normal;font-weight:bold;font-stretch:normal;font-size:27.4120903px;font-family:Merriweather;-inkscape-font-specification:'Merriweather Bold';fill:#ffffff;fill-opacity:1;stroke-width:0.2175834"
       id="path10" />
  </g>

 </g><g transform="translate(164, 150) scale(1.5, 1) "> <g
     aria-label="G"
     transform="scale(0.83167736,1.2023893)"
     style="font-style:normal;font-weight:normal;font-size:8.60094929px;line-height:1.25;font-family:sans-serif;letter-spacing:0px;word-spacing:0px;fill:#ffffff;fill-opacity:1;stroke:none;stroke-width:0.21502367"
     id="text826">
    <path
       d="m 10.365783,21.18645 q -2.9798559,0 -5.147024,-1.300301 -2.1400785,-1.327391 -3.2507522,-3.630007 -1.11067362,-2.302616 -1.11067362,-5.201203 0,-3.3320214 1.27321132,-5.7159063 Q 3.4308453,2.9551478 5.7876407,1.7361157 8.144436,0.51708363 11.28683,0.51708363 q 2.952766,0 6.636952,0.83977767 l -0.297985,5.0386659 h -2.73605 L 14.158328,2.9280582 Q 13.887432,2.6571622 13.128923,2.4404453 12.370414,2.1966389 11.151382,2.1966389 q -2.6547812,0 -4.1717989,2.1671681 -1.5170177,2.1400786 -1.5170177,6.203519 0,3.982171 1.3003009,6.447325 1.3003009,2.438064 3.9550817,2.438064 1.083584,0 2.03172,-0.270896 0.948136,-0.270896 1.435749,-0.70433 v -5.824264 l -2.871498,-0.270896 v -1.815003 h 8.235239 v 1.815003 l -1.435749,0.243807 v 7.178744 q -0.568881,0.02709 -2.058809,0.460523 -1.733735,0.460523 -2.979857,0.67724 -1.219032,0.243807 -2.70896,0.243807 z"
       style="font-style:normal;font-variant:normal;font-weight:bold;font-stretch:normal;font-size:27.08960152px;font-family:Merriweather;-inkscape-font-specification:'Merriweather Bold';fill:#ffffff;fill-opacity:1;stroke-width:0.21502367"
       id="path10" />
  </g>

 </g><g transform="translate(191, 150) scale(1.5, 1) "> <g
     aria-label="R"
     transform="scale(0.84157802,1.188244)"
     style="font-style:normal;font-weight:normal;font-size:8.70333862px;line-height:1.25;font-family:sans-serif;letter-spacing:0px;word-spacing:0px;fill:#ffffff;fill-opacity:1;stroke:none;stroke-width:0.2175834"
     id="text826">
    <path
       d="M 0.84603595,19.492403 3.0115911,19.218283 V 2.8258525 L 0.95568431,2.4420832 V 0.76994574 H 4.9304374 q 0.5208297,0 1.1513078,-0.0274121 0.6304781,-0.0274121 0.9594232,-0.0548242 1.4254287,-0.10964837 2.3574397,-0.10964837 2.8234449,0 4.5229949,0.5756539 1.69955,0.5756539 2.467088,1.7543738 0.767539,1.1787199 0.767539,3.0975662 0,1.8914342 -1.014248,3.5087475 -1.014247,1.6173135 -2.933093,2.2203795 1.096483,0.466005 1.946258,1.699549 0.849775,1.233545 1.809198,3.207215 0.685302,1.343192 1.041659,1.946258 0.38377,0.575654 0.740127,0.657891 l 0.904599,0.274121 v 1.617313 h -4.660055 q -0.438594,0 -0.932012,-0.877187 Q 13.592658,19.355343 12.825119,17.436497 11.92052,15.188705 11.26263,13.927749 10.60474,12.666793 9.8646137,12.36526 H 7.0411684 v 6.853023 l 2.5219123,0.27412 v 1.644726 H 0.84603595 Z M 9.5630807,10.693122 q 1.5624893,0 2.4396763,-1.1238953 0.877187,-1.1238957 0.877187,-3.3716871 0,-2.0010826 -0.877187,-2.9605057 -0.849775,-0.9594232 -2.9605061,-0.9594232 -0.7675385,0 -1.3157803,0.082236 -0.5208297,0.054824 -0.6853022,0.054824 v 8.2236268 q 0.328945,0.05482 1.5899012,0.05482 z"
       style="font-style:normal;font-variant:normal;font-weight:bold;font-stretch:normal;font-size:27.4120903px;font-family:Merriweather;-inkscape-font-specification:'Merriweather Bold';fill:#ffffff;fill-opacity:1;stroke-width:0.2175834"
       id="path10" />
  </g>

 </g><g transform="translate(218, 150) scale(1.5, 1) "> <g
     aria-label="A"
     transform="scale(0.82496284,1.2121758)"
     style="font-style:normal;font-weight:normal;font-size:8.5315094px;line-height:1.25;font-family:sans-serif;letter-spacing:0px;word-spacing:0px;fill:#ffffff;fill-opacity:1;stroke:none;stroke-width:0.21328768"
     id="text826">
    <path
       d="m 8.1687161,0.64726308 h 4.1112469 l 6.207177,18.19159592 1.558512,0.268709 v 1.612254 H 12.118738 V 19.107568 L 14.134055,18.838859 13.08609,15.345643 H 6.884138 l -1.047965,3.520087 1.4189327,0.241838 v 1.612254 H 0.40302735 L 0.37615646,19.107568 1.9884102,18.838859 Z M 9.9936977,4.7424403 C 9.1838524,8.2188983 8.3956311,10.011978 7.394685,13.46468 h 5.153987 C 11.50397,10.011304 10.797551,8.2258019 9.9936977,4.7424403 Z"
       style="font-style:normal;font-variant:normal;font-weight:bold;font-stretch:normal;font-size:26.87089539px;font-family:Merriweather;-inkscape-font-specification:'Merriweather Bold';fill:#ffffff;fill-opacity:1;stroke-width:0.21328768"
       id="path10"
       inkscape:connector-curvature="0"
       sodipodi:nodetypes="ccccccccccccccccccccc" />
  </g>

 </g><g transform="translate(245, 150) scale(1.5, 1) "> <g
     aria-label="D"
     transform="scale(0.83331144,1.2000315)"
     style="font-style:normal;font-weight:normal;font-size:8.61784744px;line-height:1.25;font-family:sans-serif;letter-spacing:0px;word-spacing:0px;fill:#ffffff;fill-opacity:1;stroke:none;stroke-width:0.21544613"
     id="text826">
    <path
       d="M 2.9563382,2.7980953 0.92062615,2.4452385 V 0.7623832 H 4.883479 q 0.8957134,0 2.4157117,-0.10857131 0.3528568,-0.0271428 1.0585703,-0.0542857 0.7328564,-0.0271428 1.3028558,-0.0271428 4.9942802,0 7.4642772,2.4971402 2.497141,2.4971402 2.497141,7.0842784 0,3.202853 -1.24857,5.699994 -1.221428,2.49714 -3.501425,3.908567 -2.279998,1.384284 -5.3199945,1.384284 -0.7871421,0 -2.4699974,-0.108571 -1.574284,-0.108572 -2.1442834,-0.108572 H 0.81205484 V 19.300935 L 2.9563382,19.029506 Z M 6.8920483,19.110935 q 0.9228562,0.244285 2.5785687,0.244285 2.714283,-0.05429 4.261424,-2.171426 1.547141,-2.144283 1.547141,-6.405707 0,-4.0442816 -1.519998,-6.2428507 -1.519999,-2.2257119 -4.7228523,-2.2257119 -0.6785707,0 -1.3028557,0.081428 -0.5971422,0.081429 -0.8414277,0.1085713 z"
       style="font-style:normal;font-variant:normal;font-weight:bold;font-stretch:normal;font-size:27.14282799px;font-family:Merriweather;-inkscape-font-specification:'Merriweather Bold';fill:#ffffff;fill-opacity:1;stroke-width:0.21544613"
       id="path10" />
  </g>

 </g> </svg>
